<svg id="Capa_1" data-name="Capa 1" xmlns="http://www.w3.org/2000/svg" xmlns:xlink="http://www.w3.org/1999/xlink" viewBox="0 0 116.44 36.83"><defs><style>.cls-1{fill:#99b4c7;}.cls-1,.cls-2{fill-rule:evenodd;}.cls-2{fill:#004373;}</style><symbol id="RedAbogaciaLogo" data-name="RedAbogaciaLogo" viewBox="0 0 116.44 36.83"><path class="cls-1" d="M88.71,18.57a6.68,6.68,0,0,1-.09,1.22,2.63,2.63,0,0,1-.44,1.13,1.2,1.2,0,0,1-1,.5,1.11,1.11,0,0,1-1-.51,2.87,2.87,0,0,1-.42-1.14,8.79,8.79,0,0,1-.09-1.18,7.82,7.82,0,0,1,.1-1.19,3.23,3.23,0,0,1,.42-1.2,1.14,1.14,0,0,1,1-.55,1.2,1.2,0,0,1,1,.52,3,3,0,0,1,.45,1.16A7,7,0,0,1,88.71,18.57Zm2,2.78v-7H88.75v1.21a2.54,2.54,0,0,0-.86-1,2.37,2.37,0,0,0-1.38-.38,2.31,2.31,0,0,0-1.75.72,4,4,0,0,0-.9,1.69,7.17,7.17,0,0,0-.25,2,7.27,7.27,0,0,0,.25,2,3.75,3.75,0,0,0,.91,1.65,2.49,2.49,0,0,0,1.77.68,2.29,2.29,0,0,0,1.36-.4,2.53,2.53,0,0,0,.8-.95v.55A2.31,2.31,0,0,1,88,23.83a1.92,1.92,0,0,1-1.41.49,4.68,4.68,0,0,1-1.29-.19,5.71,5.71,0,0,1-1.2-.49L84,25.3a11.35,11.35,0,0,0,1.39.36,8.54,8.54,0,0,0,1.43.13,3.49,3.49,0,0,0,3-1.23A4.79,4.79,0,0,0,90.66,21.35Zm-49,1.28-1.37-4a3.06,3.06,0,0,0-.5-1,1.51,1.51,0,0,0-.83-.46,2.6,2.6,0,0,0,1.61-.9,2.74,2.74,0,0,0,.56-1.77,2.61,2.61,0,0,0-.94-2.1,3.61,3.61,0,0,0-2.27-.73H34.45v11h2V18h.83a1,1,0,0,1,.77.31,2.52,2.52,0,0,1,.45.93l1,3.43ZM39.1,14.75A1.69,1.69,0,0,1,38.66,16a1.71,1.71,0,0,1-1.26.44h-1V13.17h.94a1.9,1.9,0,0,1,1.26.39A1.51,1.51,0,0,1,39.1,14.75ZM48.9,19v-.59a6.73,6.73,0,0,0-.28-2,3.3,3.3,0,0,0-1-1.57,2.79,2.79,0,0,0-1.88-.63,2.87,2.87,0,0,0-1.87.63,3.72,3.72,0,0,0-1.08,1.58,5.81,5.81,0,0,0-.34,2.05,5.05,5.05,0,0,0,.86,3.1,3.44,3.44,0,0,0,2.87,1.25,8.4,8.4,0,0,0,1.21-.12,6.81,6.81,0,0,0,1.16-.34l-.09-1.5a5.44,5.44,0,0,1-1,.45,3.7,3.7,0,0,1-1.09.17,1.75,1.75,0,0,1-1.57-.79A3,3,0,0,1,44.35,19Zm-1.8-1.08H44.35a4.47,4.47,0,0,1,.14-1.05,2.3,2.3,0,0,1,.46-.94,1,1,0,0,1,.83-.4,1,1,0,0,1,.83.4,2.34,2.34,0,0,1,.39.94A4.9,4.9,0,0,1,47.1,17.87Zm9.67,4.76c0-.37,0-.71-.05-1v-10H54.81v3.9a2.87,2.87,0,0,0-.83-1,2.17,2.17,0,0,0-1.28-.36,2.28,2.28,0,0,0-1.73.7,3.73,3.73,0,0,0-.86,1.65,7.09,7.09,0,0,0-.24,1.91,7.19,7.19,0,0,0,.24,1.91,4,4,0,0,0,.88,1.7,2.43,2.43,0,0,0,3,.36,2.51,2.51,0,0,0,.85-1l0,1.22Zm-1.94-4.17a9.52,9.52,0,0,1-.09,1.24,3,3,0,0,1-.42,1.17,1.15,1.15,0,0,1-1,.52,1.08,1.08,0,0,1-.94-.55A3.34,3.34,0,0,1,52,19.63a6.48,6.48,0,0,1-.09-1.17A6.21,6.21,0,0,1,52,17.31a2.86,2.86,0,0,1,.41-1.16,1.08,1.08,0,0,1,.95-.52,1.13,1.13,0,0,1,1,.5,2.84,2.84,0,0,1,.43,1.13A6.53,6.53,0,0,1,54.83,18.46ZM66.9,22.63l-3.46-11H61.17l-3.48,11h2l.74-2.69h3.61l.74,2.69Zm-3.21-4.15H60.8l1.44-5.12Zm11.07,0a7.48,7.48,0,0,0-.22-1.91,3.81,3.81,0,0,0-.84-1.65A2.28,2.28,0,0,0,72,14.2a2.24,2.24,0,0,0-1.3.36,2.81,2.81,0,0,0-.85,1v-3.9h-1.9v11h1.79l0-1.17a2.36,2.36,0,0,0,.86,1,2.54,2.54,0,0,0,1.32.35,2.31,2.31,0,0,0,1.71-.74,4.06,4.06,0,0,0,.88-1.7A6.83,6.83,0,0,0,74.76,18.46Zm-2,0a7.68,7.68,0,0,1-.1,1.17,3.15,3.15,0,0,1-.41,1.21,1.1,1.1,0,0,1-.94.55,1.14,1.14,0,0,1-1-.52,2.73,2.73,0,0,1-.42-1.17,7,7,0,0,1-.09-1.24,6.47,6.47,0,0,1,.1-1.2,2.7,2.7,0,0,1,.44-1.13,1.11,1.11,0,0,1,1-.5,1.08,1.08,0,0,1,.94.52,3,3,0,0,1,.42,1.16A8.62,8.62,0,0,1,72.76,18.46Zm10,0a5.77,5.77,0,0,0-.35-2.11,3.37,3.37,0,0,0-1.14-1.55,3.33,3.33,0,0,0-2-.6,3.23,3.23,0,0,0-2,.62,3.75,3.75,0,0,0-1.18,1.58,5.25,5.25,0,0,0-.4,2.06,6.19,6.19,0,0,0,.36,2.13,3.53,3.53,0,0,0,1.15,1.59,3.32,3.32,0,0,0,2,.63,3.28,3.28,0,0,0,2-.64,3.78,3.78,0,0,0,1.15-1.61A5.87,5.87,0,0,0,82.8,18.46Zm-2,0a7.72,7.72,0,0,1-.1,1.19,3,3,0,0,1-.43,1.19,1.18,1.18,0,0,1-2,0,2.88,2.88,0,0,1-.44-1.17,6.89,6.89,0,0,1-.1-1.22,5.72,5.72,0,0,1,.11-1.17,2.89,2.89,0,0,1,.44-1.16,1.18,1.18,0,0,1,1-.52,1.2,1.2,0,0,1,1,.51,2.84,2.84,0,0,1,.43,1.15A8.81,8.81,0,0,1,80.8,18.46Zm17.66,4.17c0-.26,0-.54,0-.83s0-.62,0-1V17.08a2.89,2.89,0,0,0-.68-2.1,3.11,3.11,0,0,0-2.37-.78,5.8,5.8,0,0,0-1.41.16,7.57,7.57,0,0,0-1.24.43l.1,1.51a5.1,5.1,0,0,1,1.12-.56A3.34,3.34,0,0,1,95,15.53a1.48,1.48,0,0,1,1.2.45,1.78,1.78,0,0,1,.33,1.16v.42H96a6.16,6.16,0,0,0-1.85.25,3.45,3.45,0,0,0-1.53.89A2.37,2.37,0,0,0,92,20.4a2.45,2.45,0,0,0,3.68,2.08,3,3,0,0,0,.93-1l.05,1.14Zm-1.9-3.28a2.88,2.88,0,0,1-.34,1.43,1.32,1.32,0,0,1-1.21.69,1.18,1.18,0,0,1-.87-.33,1.29,1.29,0,0,1-.33-.88,1.4,1.4,0,0,1,.38-1,1.89,1.89,0,0,1,.93-.48,4.48,4.48,0,0,1,1.16-.12h.28Zm8.86,3.1-.1-1.55a5.85,5.85,0,0,1-.67.27,2.27,2.27,0,0,1-.72.12,1.82,1.82,0,0,1-1.23-.43,2.47,2.47,0,0,1-.67-1.07,4,4,0,0,1-.2-1.33,3.75,3.75,0,0,1,.21-1.29,2.45,2.45,0,0,1,.66-1,1.71,1.71,0,0,1,1.15-.42,2.84,2.84,0,0,1,.72.09,3.26,3.26,0,0,1,.66.27l.1-1.51a5.2,5.2,0,0,0-.85-.26,3.91,3.91,0,0,0-.91-.1,3.47,3.47,0,0,0-2.73,1.2,4.59,4.59,0,0,0-1,3.06,6,6,0,0,0,.38,2.16,3.63,3.63,0,0,0,1.19,1.58,3.53,3.53,0,0,0,2.07.61,5.46,5.46,0,0,0,1-.11C104.77,22.63,105.1,22.55,105.42,22.45Zm3.2.18V14.36h-1.91v8.27Zm7.82,0c0-.26,0-.54,0-.83s0-.62,0-1V17.08a2.94,2.94,0,0,0-.68-2.1,3.11,3.11,0,0,0-2.37-.78,5.69,5.69,0,0,0-1.41.16,7.26,7.26,0,0,0-1.24.43l.1,1.51a5.26,5.26,0,0,1,1.11-.56,3.44,3.44,0,0,1,1.13-.21,1.48,1.48,0,0,1,1.2.45,1.78,1.78,0,0,1,.33,1.16v.42H114a6.16,6.16,0,0,0-1.85.25,3.45,3.45,0,0,0-1.53.89,2.46,2.46,0,0,0,3.05,3.78,3,3,0,0,0,.93-1l0,1.14Zm-1.9-3.28a2.88,2.88,0,0,1-.34,1.43,1.32,1.32,0,0,1-1.21.69,1.16,1.16,0,0,1-.87-.33,1.2,1.2,0,0,1-.33-.88,1.4,1.4,0,0,1,.38-1,1.89,1.89,0,0,1,.93-.48,4.48,4.48,0,0,1,1.16-.12h.28Zm-5.3-7.76H107.7l-.71,2h1.24Z"/><path class="cls-2" d="M0,0H14.19l8.72,26.64H18.86l-1.22-3.83H11.47V19h5l-1.25-3.82h-3.7V11.43h2.47L11.47,3.85,4.08,26.64H0L7.44,3.79H0ZM22.91,30.41s-1,6.42-11.45,6.42S0,30.41,0,30.41Z"/><path class="cls-2" d="M38,36.55l-1.45-4.34H35.9l-1.45,4.34h.63l.34-1.12H37l.34,1.12ZM36.91,35H35.54l.69-2.21Z"/><path class="cls-2" d="M41.72,35.35a1.09,1.09,0,0,0-.23-.7,1.08,1.08,0,0,0-.61-.36,1,1,0,0,0,.54-.35,1,1,0,0,0,.2-.64,1,1,0,0,0-.35-.8,1.29,1.29,0,0,0-.87-.29H39.17v4.34h1.17a1.48,1.48,0,0,0,1-.29A1.09,1.09,0,0,0,41.72,35.35Zm-.72-2a.76.76,0,0,1-.19.53.69.69,0,0,1-.53.2h-.49v-1.4h.49a.71.71,0,0,1,.52.17A.61.61,0,0,1,41,33.36Zm.09,2a.74.74,0,0,1-.2.57.84.84,0,0,1-.58.18h-.52V34.54h.53a.78.78,0,0,1,.57.21A.76.76,0,0,1,41.09,35.32Z"/><path class="cls-2" d="M46.23,34.39a3.69,3.69,0,0,0-.13-1,1.71,1.71,0,0,0-.5-.84,1.46,1.46,0,0,0-1-.35,1.37,1.37,0,0,0-1,.35,1.89,1.89,0,0,0-.51.85,3.08,3.08,0,0,0-.15,1,3.66,3.66,0,0,0,.13,1,1.79,1.79,0,0,0,.5.85,1.62,1.62,0,0,0,2,0,2,2,0,0,0,.52-.85A3.35,3.35,0,0,0,46.23,34.39Zm-.65,0a3.38,3.38,0,0,1-.06.76,1.54,1.54,0,0,1-.29.69.81.81,0,0,1-.66.3.8.8,0,0,1-.64-.29,1.52,1.52,0,0,1-.29-.67,4.29,4.29,0,0,1-.07-.79,4.24,4.24,0,0,1,.07-.77,1.54,1.54,0,0,1,.29-.69.79.79,0,0,1,.64-.3.84.84,0,0,1,.67.3,1.53,1.53,0,0,1,.28.68A3.51,3.51,0,0,1,45.58,34.39Z"/><path class="cls-2" d="M50.54,36.38v-2.2H49.26v.48H50V36a1.25,1.25,0,0,1-.25.09,1.09,1.09,0,0,1-.26,0,1.26,1.26,0,0,1-.8-.27,1.37,1.37,0,0,1-.43-.64,2.33,2.33,0,0,1-.13-.83,2.3,2.3,0,0,1,.14-.83,1.42,1.42,0,0,1,.45-.65,1.17,1.17,0,0,1,.78-.26,1.75,1.75,0,0,1,.51.07,2,2,0,0,1,.44.19l0-.56a2.15,2.15,0,0,0-.47-.14,2.26,2.26,0,0,0-.53-.06,1.88,1.88,0,0,0-1.1.32,1.93,1.93,0,0,0-.68.81,2.72,2.72,0,0,0-.23,1.11,3.08,3.08,0,0,0,.2,1.11,1.84,1.84,0,0,0,.64.81,2,2,0,0,0,1.12.32,2.93,2.93,0,0,0,.58-.06A2.06,2.06,0,0,0,50.54,36.38Z"/><path class="cls-2" d="M55.13,36.55l-1.45-4.34H53l-1.44,4.34h.62l.35-1.12h1.62l.34,1.12ZM54,35H52.64l.69-2.21Z"/><path class="cls-2" d="M58.77,36.49l0-.58a1.92,1.92,0,0,1-.32.14,1.56,1.56,0,0,1-.46.06,1.17,1.17,0,0,1-.75-.25,1.45,1.45,0,0,1-.43-.64,2.26,2.26,0,0,1-.14-.83,2.32,2.32,0,0,1,.14-.84,1.45,1.45,0,0,1,.43-.64,1.18,1.18,0,0,1,.76-.26,2,2,0,0,1,.43.07,1,1,0,0,1,.33.16l0-.56a1.52,1.52,0,0,0-.36-.12,2.38,2.38,0,0,0-.49-.05,1.78,1.78,0,0,0-1,.29,2,2,0,0,0-.67.8A2.78,2.78,0,0,0,56,34.39a2.82,2.82,0,0,0,.21,1.11,1.92,1.92,0,0,0,.64.81,1.83,1.83,0,0,0,1.07.32,2.28,2.28,0,0,0,.48-.05A2,2,0,0,0,58.77,36.49Z"/><path class="cls-2" d="M61.14,31h-.53l-.5.88h.41Zm-.44,5.59V32.21h-.62v4.34Z"/><path class="cls-2" d="M65.44,36.55,64,32.21H63.3l-1.44,4.34h.62l.35-1.12h1.62l.34,1.12ZM64.31,35H63l.68-2.21Z"/><polygon class="cls-2" points="70.9 36.55 70.9 36.05 69.33 36.05 69.33 34.55 70.75 34.55 70.75 34.06 69.33 34.06 69.33 32.7 70.83 32.7 70.83 32.21 68.71 32.21 68.71 36.55 70.9 36.55"/><path class="cls-2" d="M74.39,35.37a1.1,1.1,0,0,0-.19-.68,2.13,2.13,0,0,0-.62-.52l-.39-.24a1.57,1.57,0,0,1-.36-.29.67.67,0,0,1-.13-.41.52.52,0,0,1,.24-.46.88.88,0,0,1,.46-.14,1.84,1.84,0,0,1,.43.07,1.25,1.25,0,0,1,.35.16l0-.57-.35-.09a2.49,2.49,0,0,0-.5-.05,1.55,1.55,0,0,0-.53.08,1.28,1.28,0,0,0-.54.34,1,1,0,0,0-.24.7,1.14,1.14,0,0,0,.16.63,1.55,1.55,0,0,0,.52.49l.41.25a2.29,2.29,0,0,1,.43.33.62.62,0,0,1,.16.47.56.56,0,0,1,0,.27.61.61,0,0,1-.22.29.82.82,0,0,1-.49.13,1.22,1.22,0,0,1-.39-.05,1.46,1.46,0,0,1-.49-.23l0,.57a2,2,0,0,0,.49.16,3.37,3.37,0,0,0,.52.05,1.43,1.43,0,0,0,.94-.35A1.25,1.25,0,0,0,74.39,35.37Z"/><path class="cls-2" d="M78.25,33.49a1.17,1.17,0,0,0-.39-1,1.61,1.61,0,0,0-1-.31h-1v4.34h.62V34.77h.51a1.34,1.34,0,0,0,1-.34A1.23,1.23,0,0,0,78.25,33.49Zm-.64,0a.78.78,0,0,1-.21.6.9.9,0,0,1-.63.19h-.39V32.7h.32a1.09,1.09,0,0,1,.67.18A.72.72,0,0,1,77.61,33.49Z"/><path class="cls-2" d="M82.26,36.55l-1.44-4.34h-.69l-1.44,4.34h.62l.34-1.12h1.62l.34,1.12ZM81.14,35H79.78l.68-2.21Z"/><path class="cls-2" d="M85.82,31h-.33a.35.35,0,0,1-.06.19.19.19,0,0,1-.16.11.48.48,0,0,1-.2-.07,1.36,1.36,0,0,0-.24-.13.52.52,0,0,0-.27-.07.48.48,0,0,0-.41.23.92.92,0,0,0-.14.47h.33a.4.4,0,0,1,.07-.2.21.21,0,0,1,.17-.1.44.44,0,0,1,.21.07l.22.13a.68.68,0,0,0,.28.07.42.42,0,0,0,.29-.11.75.75,0,0,0,.18-.28A.89.89,0,0,0,85.82,31Zm.56,5.51V32.21h-.56v3.64l-1.58-3.64h-.83v4.34H84V32.93l1.57,3.62Z"/><path class="cls-2" d="M91.1,34.39a3.69,3.69,0,0,0-.14-1,1.71,1.71,0,0,0-.5-.84,1.42,1.42,0,0,0-1-.35,1.37,1.37,0,0,0-1,.35,1.9,1.9,0,0,0-.52.85,3.68,3.68,0,0,0-.15,1,4.06,4.06,0,0,0,.13,1,1.89,1.89,0,0,0,.51.85,1.48,1.48,0,0,0,1,.35,1.47,1.47,0,0,0,1-.35,1.9,1.9,0,0,0,.52-.85A3.68,3.68,0,0,0,91.1,34.39Zm-.65,0a4.13,4.13,0,0,1-.07.76,1.43,1.43,0,0,1-.29.69.86.86,0,0,1-1.3,0,1.52,1.52,0,0,1-.29-.67,4.29,4.29,0,0,1-.07-.79,4.24,4.24,0,0,1,.07-.77,1.66,1.66,0,0,1,.29-.69.87.87,0,0,1,1.31,0,1.55,1.55,0,0,1,.29.68A5.32,5.32,0,0,1,90.45,34.39Z"/><polygon class="cls-2" points="94.56 36.55 94.56 36.05 93.14 36.05 93.14 32.21 92.51 32.21 92.51 36.55 94.56 36.55"/><path class="cls-2" d="M98.87,36.55l-1.45-4.34h-.69l-1.44,4.34h.62l.35-1.12h1.62l.33,1.12ZM97.74,35H96.38l.68-2.21Z"/></symbol></defs><title>RedAbogacia</title><use width="116.44" height="36.83" xlink:href="#RedAbogaciaLogo"/></svg>